<?xml version="1.0" encoding="UTF-8"?>
<!DOCTYPE svg PUBLIC "-//W3C//DTD SVG 1.1//EN" "http://www.w3.org/Graphics/SVG/1.1/DTD/svg11.dtd">
<svg xmlns="http://www.w3.org/2000/svg" version="1.1" width="500px" height="500px" style="shape-rendering:geometricPrecision; text-rendering:geometricPrecision; image-rendering:optimizeQuality; fill-rule:evenodd; clip-rule:evenodd" xmlns:xlink="http://www.w3.org/1999/xlink">
<g><path style="opacity:1" fill="#ab9680" d="M -0.5,-0.5 C 166.167,-0.5 332.833,-0.5 499.5,-0.5C 499.5,166.167 499.5,332.833 499.5,499.5C 332.833,499.5 166.167,499.5 -0.5,499.5C -0.5,332.833 -0.5,166.167 -0.5,-0.5 Z"/></g>
<g><path style="opacity:1" fill="#fcfcfb" d="M 133.5,173.5 C 133.44,172.957 133.107,172.624 132.5,172.5C 131.169,214.998 131.169,257.331 132.5,299.5C 132.713,302.475 133.713,305.142 135.5,307.5C 139.032,308.903 142.698,309.903 146.5,310.5C 136.167,311.833 125.833,311.833 115.5,310.5C 119.71,309.977 123.71,308.81 127.5,307C 128.191,305.933 128.691,304.766 129,303.5C 129.667,258.833 129.667,214.167 129,169.5C 124.517,166.999 119.683,165.332 114.5,164.5C 127.149,163.501 139.816,163.168 152.5,163.5C 168.338,203.51 185.005,243.177 202.5,282.5C 218.482,244.53 234.482,206.53 250.5,168.5C 249.335,167.416 248.002,166.583 246.5,166C 243.774,165.818 241.107,165.318 238.5,164.5C 269.855,163.062 301.189,163.229 332.5,165C 345.691,168.503 354.524,176.67 359,189.5C 362.366,204.181 360.7,218.181 354,231.5C 346.348,240.743 336.515,245.91 324.5,247C 327.672,248.752 330.672,250.752 333.5,253C 335.667,255.833 337.833,258.667 340,261.5C 347.333,275.5 354.667,289.5 362,303.5C 366.966,307.88 372.799,310.213 379.5,310.5C 370.518,311.665 361.518,311.832 352.5,311C 345.954,308.982 340.787,305.148 337,299.5C 330,285.5 323,271.5 316,257.5C 313.26,253.042 309.427,249.875 304.5,248C 294.172,247.5 283.839,247.334 273.5,247.5C 273.333,266.503 273.5,285.503 274,304.5C 274.5,306.333 275.667,307.5 277.5,308C 280.5,308.333 283.5,308.667 286.5,309C 286.957,309.414 287.291,309.914 287.5,310.5C 271.167,311.833 254.833,311.833 238.5,310.5C 242.135,309.373 245.801,308.373 249.5,307.5C 250.584,306.335 251.417,305.002 252,303.5C 252.667,259.5 252.667,215.5 252,171.5C 232.471,218.419 213.138,265.419 194,312.5C 193.282,313.451 192.449,313.617 191.5,313C 172.574,266.317 153.241,219.817 133.5,173.5 Z"/></g>
<g><path style="opacity:1" fill="#ab9680" d="M 308.5,244.5 C 296.833,244.5 285.167,244.5 273.5,244.5C 273.5,220.167 273.5,195.833 273.5,171.5C 274.254,168.909 275.921,167.076 278.5,166C 290.876,165.13 303.209,165.464 315.5,167C 330.646,170.482 339.146,179.982 341,195.5C 343.393,208.788 341.06,221.121 334,232.5C 327.31,240.235 318.81,244.235 308.5,244.5 Z"/></g>
<g><path style="opacity:1" fill="#e6e0d9" d="M 133.5,173.5 C 132.501,215.33 132.168,257.33 132.5,299.5C 131.169,257.331 131.169,214.998 132.5,172.5C 133.107,172.624 133.44,172.957 133.5,173.5 Z"/></g>
<g><path style="opacity:1" fill="#d9cfc5" d="M 273.5,171.5 C 273.5,195.833 273.5,220.167 273.5,244.5C 285.167,244.5 296.833,244.5 308.5,244.5C 296.678,245.495 284.678,245.828 272.5,245.5C 272.169,220.661 272.502,195.994 273.5,171.5 Z"/></g>
</svg>
