<?xml version="1.0" encoding="UTF-8"?>
<!DOCTYPE svg PUBLIC "-//W3C//DTD SVG 1.1//EN" "http://www.w3.org/Graphics/SVG/1.1/DTD/svg11.dtd">
<svg xmlns="http://www.w3.org/2000/svg" version="1.1" width="500px" height="500px" style="shape-rendering:geometricPrecision; text-rendering:geometricPrecision; image-rendering:optimizeQuality; fill-rule:evenodd; clip-rule:evenodd" xmlns:xlink="http://www.w3.org/1999/xlink">
<g><path style="opacity:1" fill="#ab9680" d="M -0.5,-0.5 C 95.5,-0.5 191.5,-0.5 287.5,-0.5C 287.5,59.5 287.5,119.5 287.5,179.5C 191.5,179.5 95.5,179.5 -0.5,179.5C -0.5,119.5 -0.5,59.5 -0.5,-0.5 Z"/></g>
<g><path style="opacity:1" fill="#fcfcfb" d="M 32.5,24.5 C 32.44,23.9569 32.1067,23.6236 31.5,23.5C 30.1693,65.9981 30.1693,108.331 31.5,150.5C 31.7134,153.475 32.7134,156.142 34.5,158.5C 38.3609,159.933 42.3609,160.933 46.5,161.5C 35.8333,162.833 25.1667,162.833 14.5,161.5C 18.7104,160.977 22.7104,159.81 26.5,158C 27.1905,156.933 27.6905,155.766 28,154.5C 28.6667,109.833 28.6667,65.1667 28,20.5C 23.5167,17.999 18.6834,16.3323 13.5,15.5C 26.1492,14.5009 38.8158,14.1676 51.5,14.5C 67.338,54.5101 84.0047,94.1767 101.5,133.5C 117.482,95.5302 133.482,57.5302 149.5,19.5C 148.335,18.4164 147.002,17.5831 145.5,17C 142.774,16.8184 140.107,16.3184 137.5,15.5C 168.855,14.0624 200.189,14.229 231.5,16C 244.691,19.5029 253.524,27.6696 258,40.5C 261.366,55.1813 259.7,69.1813 253,82.5C 245.348,91.7433 235.515,96.9099 223.5,98C 226.672,99.7519 229.672,101.752 232.5,104C 234.667,106.833 236.833,109.667 239,112.5C 246.333,126.5 253.667,140.5 261,154.5C 265.966,158.88 271.799,161.213 278.5,161.5C 269.518,162.665 260.518,162.832 251.5,162C 244.954,159.982 239.787,156.148 236,150.5C 229,136.5 222,122.5 215,108.5C 212.26,104.042 208.427,100.875 203.5,99C 193.172,98.5002 182.839,98.3335 172.5,98.5C 172.333,117.503 172.5,136.503 173,155.5C 173.5,157.333 174.667,158.5 176.5,159C 179.5,159.333 182.5,159.667 185.5,160C 185.957,160.414 186.291,160.914 186.5,161.5C 170.167,162.833 153.833,162.833 137.5,161.5C 141.135,160.373 144.801,159.373 148.5,158.5C 149.584,157.335 150.417,156.002 151,154.5C 151.667,110.5 151.667,66.5 151,22.5C 131.471,69.4194 112.138,116.419 93,163.5C 92.2825,164.451 91.4491,164.617 90.5,164C 71.5745,117.317 52.2411,70.8175 32.5,24.5 Z"/></g>
<g><path style="opacity:1" fill="#ab9680" d="M 207.5,95.5 C 195.833,95.5 184.167,95.5 172.5,95.5C 172.5,71.1667 172.5,46.8333 172.5,22.5C 173.254,19.909 174.921,18.0757 177.5,17C 189.876,16.1305 202.209,16.4638 214.5,18C 229.646,21.4825 238.146,30.9825 240,46.5C 242.393,59.7876 240.06,72.1209 233,83.5C 226.31,91.2354 217.81,95.2354 207.5,95.5 Z"/></g>
<g><path style="opacity:1" fill="#e6e0d9" d="M 32.5,24.5 C 31.5013,66.33 31.168,108.33 31.5,150.5C 30.1693,108.331 30.1693,65.9981 31.5,23.5C 32.1067,23.6236 32.44,23.9569 32.5,24.5 Z"/></g>
<g><path style="opacity:1" fill="#d9cfc5" d="M 172.5,22.5 C 172.5,46.8333 172.5,71.1667 172.5,95.5C 184.167,95.5 195.833,95.5 207.5,95.5C 195.678,96.4951 183.678,96.8284 171.5,96.5C 171.169,71.661 171.502,46.9944 172.5,22.5 Z"/></g>
</svg>
